<svg xmlns="http://www.w3.org/2000/svg" viewBox="0 0 20.51 15.28"><defs><style>.cls-1{fill:none;stroke:#fff;stroke-miterlimit:10;}.cls-2{fill:#fff;}</style></defs><title>email</title><g id="Layer_2" data-name="Layer 2"><g id="Layer_1-2" data-name="Layer 1"><path class="cls-1" d="M18.19.5H2.32A1.83,1.83,0,0,0,.5,2.32V13a1.83,1.83,0,0,0,1.82,1.82H18.19A1.82,1.82,0,0,0,20,13V2.32A1.82,1.82,0,0,0,18.19.5Z"/><path class="cls-2" d="M18.62,3.17,12.2,8.1a3,3,0,0,1-3.64,0L2.15,3.17a.41.41,0,1,1,.5-.65L9.06,7.45a2.18,2.18,0,0,0,2.65,0l6.41-4.93a.41.41,0,0,1,.5.65Z"/></g></g></svg>