<svg xmlns="http://www.w3.org/2000/svg" viewBox="0 0 15.01 14.35"><defs><style>.cls-1{fill:#b0b0b0;fill-rule:evenodd;}</style></defs><title>linkedIn</title><g id="Layer_2" data-name="Layer 2"><g id="Layer_1-2" data-name="Layer 1"><path class="cls-1" d="M3.41,4.67H.19v9.68H3.41ZM1.8,3.35A1.68,1.68,0,1,0,1.82,0a1.68,1.68,0,1,0,0,3.35Z"/><path class="cls-1" d="M5.19,14.35H8.4V8.94a2.26,2.26,0,0,1,.11-.78A1.76,1.76,0,0,1,10.16,7c1.16,0,1.63.89,1.63,2.19v5.18H15V8.79c0-3-1.59-4.35-3.71-4.35A3.22,3.22,0,0,0,8.38,6.07h0V4.67H5.19c0,.9,0,9.68,0,9.68"/></g></g></svg>