<svg xmlns="http://www.w3.org/2000/svg" viewBox="0 0 20.58 22"><defs><style>.cls-1{fill:none;stroke:#fff;stroke-miterlimit:10;}</style></defs><title>phone</title><g id="Layer_2" data-name="Layer 2"><g id="Layer_1-2" data-name="Layer 1"><path class="cls-1" d="M.5,7.07A6.59,6.59,0,0,1,2.4,2.14,16.35,16.35,0,0,1,4,.82,1.34,1.34,0,0,1,5.85,1a7.85,7.85,0,0,1,.93,1.14A10.76,10.76,0,0,1,8.11,4.49a2.06,2.06,0,0,1-.59,2.43,9.3,9.3,0,0,1-1.09.9,1.77,1.77,0,0,0-.67,2.35,8.44,8.44,0,0,0,1.37,2.29A16.52,16.52,0,0,0,9.64,15.1a4.13,4.13,0,0,0,1.73.94,1.55,1.55,0,0,0,1.49-.43c.42-.4.83-.8,1.27-1.17a2,2,0,0,1,2.4-.23A7.06,7.06,0,0,1,17.7,15c.58.48,1.14,1,1.69,1.53a2.56,2.56,0,0,1,.46.62,1.27,1.27,0,0,1-.18,1.66,11.18,11.18,0,0,1-2.15,1.79,6.45,6.45,0,0,1-3.35.9,8.68,8.68,0,0,1-4.05-1.1,17.27,17.27,0,0,1-4.07-3.15,26,26,0,0,1-3.68-4.63A12.26,12.26,0,0,1,.6,8.08C.54,7.68.52,7.28.5,7.07Z"/></g></g></svg>