<svg xmlns="http://www.w3.org/2000/svg" viewBox="0 0 16.96 14.86"><defs><style>.cls-1{fill:#b0b0b0;}</style></defs><title>tweeter</title><g id="Layer_2" data-name="Layer 2"><g id="Layer_1-2" data-name="Layer 1"><path class="cls-1" d="M17,1.73a5.61,5.61,0,0,1-1.83.47A3.52,3.52,0,0,0,16.68.26a7.22,7.22,0,0,1-2.24.85A3.52,3.52,0,0,0,8.36,3.52a3.57,3.57,0,0,0,.09.8A10,10,0,0,1,1.19.64a3.54,3.54,0,0,0,1.09,4.7A3.44,3.44,0,0,1,.69,4.9V5A3.53,3.53,0,0,0,3.51,8.4a3.48,3.48,0,0,1-.93.12,3.68,3.68,0,0,1-.66-.06A3.54,3.54,0,0,0,5.21,10.9,7.07,7.07,0,0,1,.84,12.41,7.73,7.73,0,0,1,0,12.36s1.3,1.79,5.83,2.42S18.15,12.35,15.4,3.47A6.06,6.06,0,0,0,17,1.73"/></g></g></svg>